<svg width="413" height="423" viewBox="0 0 413 423" fill="none" xmlns="http://www.w3.org/2000/svg">
<rect width="413" height="423" rx="96" fill="#007771"/>
<path d="M120.5 247.5L103 264L106.783 265.403C131.669 274.63 159.641 268.766 178.725 250.321L248.863 182.53C260.152 171.619 276.251 167.265 291.5 171L309.5 154.5L305.194 152.969C280.248 144.099 252.432 150.063 233.315 168.38L163.131 235.628C151.807 246.478 135.802 250.935 120.5 247.5Z" fill="white"/>
<path d="M332.5 149.5H347V164.5L296.158 213.208C284.491 224.386 266.194 224.728 254.117 213.993L244 205L258.5 191L268.395 199.039C271.891 201.88 276.95 201.698 280.233 198.613L332.5 149.5Z" fill="white"/>
<path d="M79.4999 268.562L65 268.499L65.0649 253.499L116.117 205.011C127.833 193.884 146.131 193.622 158.161 204.409L168.239 213.446L153.679 227.383L143.819 219.301C140.335 216.445 135.276 216.605 131.979 219.676L79.4999 268.562Z" fill="white"/>
<path d="M342 186.5L325 202.5C327.718 225.601 310.508 246.258 287.296 247.755L283.085 248.027C273.309 248.658 263.601 246.009 255.5 240.5L230 218.5L215.5 232.5L238 253.5L246.726 259.363C261.504 269.291 279.872 272.294 297.042 267.588L303.916 265.703C338.034 256.351 355.999 218.988 342 186.5Z" fill="white"/>
<path d="M70.5 231.55L87.53 215.582C84.8556 192.475 102.104 171.851 125.319 170.397L129.531 170.134C139.308 169.521 149.01 172.188 157.101 177.712L182.56 199.76L197.086 185.787L174.626 164.745L165.911 158.866C151.152 148.91 132.789 145.872 115.61 150.547L108.733 152.418C74.5976 161.706 56.5619 199.035 70.5 231.55Z" fill="white"/>
</svg>
